<?xml version="1.0" encoding="UTF-8" standalone="no"?>
<svg width="16px" height="16px" viewBox="0 0 16 16" version="1.1" xmlns="http://www.w3.org/2000/svg" xmlns:xlink="http://www.w3.org/1999/xlink">
    <!-- Generator: Sketch 39.1 (31720) - http://www.bohemiancoding.com/sketch -->
    <title>Desktop HD</title>
    <desc>Created with Sketch.</desc>
    <defs></defs>
    <g id="Page-1" stroke="none" stroke-width="1" fill="none" fill-rule="evenodd">
        <g id="Desktop-HD" transform="translate(-110.000000, -138.000000)">
            <rect id="Rectangle" fill="#F32A00" x="110" y="138" width="16" height="16" rx="0.628628211"></rect>
            <path d="M114.158498,142.8462 C114.161133,142.829443 114.169697,142.811291 114.184189,142.791741 C114.198681,142.772192 114.216467,142.75404 114.237546,142.737283 C114.258626,142.720527 114.281023,142.707261 114.304737,142.697487 C114.328452,142.687712 114.350849,142.682825 114.371928,142.682825 L115.383745,142.682825 C115.42854,142.682825 115.466746,142.697486 115.498365,142.72681 C115.529985,142.756134 115.553699,142.781967 115.569509,142.804309 L115.668319,143.043088 L117.743334,148.715141 C117.764414,148.770996 117.760462,148.816377 117.731477,148.851287 C117.702493,148.886196 117.652429,148.903651 117.581286,148.903651 L116.446944,148.903651 C116.38634,148.903651 116.33957,148.891781 116.306633,148.868043 C116.273696,148.844305 116.248006,148.804509 116.229561,148.748654 C116.176862,148.606223 116.125481,148.464493 116.075417,148.323459 C116.025353,148.182425 115.97529,148.040695 115.925226,147.898265 L113.826496,147.898265 C113.776432,148.040695 113.725709,148.182425 113.674328,148.323459 C113.622946,148.464493 113.572224,148.606223 113.52216,148.748654 C113.487906,148.851985 113.420715,148.903651 113.320587,148.903651 L112.154626,148.903651 C112.104562,148.903651 112.063062,148.889687 112.030125,148.861759 C111.997188,148.833832 111.99126,148.791941 112.012339,148.736086 L114.158498,142.8462 Z M114.877837,144.639138 C114.827773,144.781569 114.777051,144.935168 114.725669,145.09994 C114.674287,145.264713 114.623565,145.430879 114.573501,145.598444 C114.523437,145.766009 114.472715,145.931477 114.421333,146.094853 C114.369952,146.258229 114.31923,146.41113 114.269166,146.553561 L115.482556,146.553561 L114.877837,144.639138 Z M121.905222,148.254339 C121.834079,148.329743 121.75569,148.410732 121.670054,148.497307 C121.584418,148.583882 121.49022,148.664871 121.387457,148.740275 C121.284694,148.81568 121.174027,148.877817 121.055454,148.926691 C120.936881,148.975564 120.809088,149 120.67207,149 C120.313717,149 119.983694,148.928786 119.681992,148.786355 C119.380289,148.643925 119.12075,148.449133 118.903367,148.201975 C118.685983,147.954816 118.516031,147.663676 118.393506,147.328546 C118.270981,146.993415 118.209719,146.633156 118.209719,146.247756 C118.209719,145.859563 118.270981,145.498605 118.393506,145.164871 C118.516031,144.831137 118.685983,144.540695 118.903367,144.293537 C119.12075,144.046378 119.380289,143.852285 119.681992,143.711251 C119.983694,143.570217 120.313717,143.499701 120.67207,143.499701 C120.816993,143.499701 120.949397,143.522042 121.069288,143.566727 C121.189178,143.611411 121.298527,143.668661 121.397338,143.73848 C121.496149,143.808299 121.587053,143.887193 121.670054,143.975165 C121.753055,144.063136 121.831444,144.149012 121.905222,144.232795 L121.905222,142.318372 C121.905222,142.229004 121.930913,142.153601 121.982295,142.09216 C122.033676,142.03072 122.110747,142 122.213511,142 L123.102803,142 C123.137057,142 123.173287,142.00768 123.211494,142.02304 C123.249701,142.0384 123.284614,142.060044 123.316233,142.087971 C123.347852,142.115899 123.373543,142.149411 123.393305,142.18851 C123.413067,142.227608 123.422948,142.270895 123.422948,142.318372 L123.422948,148.581089 C123.422948,148.796131 123.316234,148.903651 123.102803,148.903651 L122.32813,148.903651 C122.275431,148.903651 122.23459,148.896669 122.205606,148.882705 C122.176621,148.868741 122.152248,148.848494 122.132486,148.821963 C122.112724,148.795432 122.094938,148.761919 122.079129,148.721424 C122.063319,148.680929 122.043557,148.634151 122.019842,148.581089 L121.905222,148.254339 Z M119.632587,146.247756 C119.632587,146.432078 119.659594,146.604527 119.713611,146.765111 C119.767627,146.925694 119.844699,147.064631 119.944827,147.181927 C120.044955,147.299223 120.165502,147.39208 120.306473,147.460503 C120.447443,147.528925 120.603561,147.563136 120.774833,147.563136 C120.94347,147.563136 121.102224,147.53102 121.251099,147.466786 C121.399973,147.402553 121.529743,147.313884 121.640411,147.200778 C121.751079,147.087671 121.840007,146.95432 121.907199,146.800718 C121.97439,146.647117 122.011938,146.482347 122.019842,146.306403 L122.019842,146.247756 C122.019842,146.06902 121.988223,145.898664 121.924985,145.736685 C121.861746,145.574705 121.774135,145.432277 121.662149,145.309396 C121.550164,145.186514 121.418418,145.089468 121.266908,145.018253 C121.115398,144.947037 120.951375,144.91143 120.774833,144.91143 C120.603561,144.91143 120.447443,144.947037 120.306473,145.018253 C120.165502,145.089468 120.044955,145.186514 119.944827,145.309396 C119.844699,145.432277 119.767627,145.574705 119.713611,145.736685 C119.659594,145.898664 119.632587,146.06902 119.632587,146.247756 L119.632587,146.247756 Z" id="Ad" fill="#FFFFFF"></path>
        </g>
    </g>
</svg>